Coordinates
version=1
nRows=24
nColumns=22
inDegrees=yes

Units are S.I. units (second, meters, Newtons, ...)
If the header above contains a line with 'inDegrees', this indicates whether rotational values are in degrees (yes) or radians (no).

endheader
time	pelvis_tilt	pelvis_list	pelvis_rotation	pelvis_tx	pelvis_ty	pelvis_tz	hip_flexion_r	hip_adduction_r	hip_rotation_r	knee_angle_r	ankle_angle_r	subtalar_angle_r	hip_flexion_l	hip_adduction_l	hip_rotation_l	knee_angle_l	ankle_angle_l	subtalar_angle_l	lumbar_extension	lumbar_bending	lumbar_rotation
      1.83000000	      1.83902644	     -0.05370204	   -221.91662726	     -0.40298120	      0.94234754	      0.83987006	      4.56933226	     16.90312070	      5.54220172	    -14.01897967	      7.87904068	    -13.88534239	     30.86047929	     -9.04381948	      7.97430300	    -64.29954626	      8.62975012	      8.85559243	     -6.16889425	     -0.21972076	      8.06402243
      1.84000000	      1.80768899	     -0.09155311	   -223.55997904	     -0.40772625	      0.94232766	      0.83338640	      3.50991460	     16.89320452	      7.22113007	    -13.68985404	      8.09502480	    -13.83387414	     31.43663600	     -8.79550910	      8.24154927	    -62.14903778	      8.92980420	      9.51424571	     -6.20892563	     -0.24484649	      8.89924834
      1.85000000	      1.77130337	     -0.11589702	   -225.14258191	     -0.41249937	      0.94222707	      0.82694101	      2.48373325	     16.84571703	      8.85485958	    -13.42208604	      8.35025659	    -13.76358565	     31.90275658	     -8.52638236	      8.54561393	    -59.79057416	      9.18325441	     10.24702961	     -6.26012894	     -0.25329410	      9.66843885
      1.86000000	      1.74007491	     -0.12908218	   -226.64482997	     -0.41732375	      0.94202425	      0.82054086	      1.50176680	     16.76933236	     10.41163943	    -13.20924955	      8.65300983	    -13.67213429	     32.27198696	     -8.23457340	      8.92267071	    -57.23612730	      9.38056297	     11.02833155	     -6.31186090	     -0.24003149	     10.36420337
      1.87000000	      1.71242784	     -0.13531221	   -228.05722178	     -0.42218995	      0.94171360	      0.81419709	      0.58642720	     16.67054122	     11.88196045	    -13.08352152	      8.97936685	    -13.55995022	     32.53734553	     -7.90915597	      9.40989228	    -54.48653139	      9.56942950	     11.81875016	     -6.36770806	     -0.21069388	     10.95991475
      1.88000000	      1.70626461	     -0.13848168	   -229.36233792	     -0.42713509	      0.94126012	      0.80791303	     -0.26193855	     16.56284695	     13.21941007	    -13.01035070	      9.37125598	    -13.41750183	     32.72747665	     -7.55602885	     10.04995279	    -51.57161370	      9.69618692	     12.69489453	     -6.40638112	     -0.15203841	     11.46454528
      1.89000000	      1.70852490	     -0.14315001	   -230.58468694	     -0.43210585	      0.94066953	      0.80164591	     -1.02695785	     16.45071188	     14.45391426	    -13.03999294	      9.76191041	    -13.29378277	     32.81056512	     -7.19205388	     10.82043563	    -48.47982320	      9.85329989	     13.42967070	     -6.43867997	     -0.08562428	     11.88707209
      1.90000000	      1.73085921	     -0.14319353	   -231.69783632	     -0.43717232	      0.93993150	      0.79538567	     -1.74105764	     16.34397160	     15.52583896	    -13.10193817	     10.18942782	    -13.15488799	     32.80245342	     -6.81958058	     11.78578439	    -45.25041241	     10.03011551	     14.22390905	     -6.45315109	      0.00537642	     12.23900482
      1.91000000	      1.77522277	     -0.15112149	   -232.73983948	     -0.44222312	      0.93901210	      0.78911412	     -2.35096878	     16.26078011	     16.49429199	    -13.28639004	     10.63590334	    -13.03883812	     32.71306376	     -6.47911485	     12.89478149	    -41.90407077	     10.21795440	     14.92854255	     -6.44925548	      0.10673862	     12.52702055
      1.92000000	      1.83791839	     -0.16617799	   -233.72880479	     -0.44724210	      0.93791817	      0.78278305	     -2.87544661	     16.20305601	     17.36824549	    -13.57637632	     11.08859424	    -12.96855826	     32.54110589	     -6.19735364	     14.12095619	    -38.47321806	     10.42334979	     15.49902688	     -6.42720153	      0.21172868	     12.78330077
      1.93000000	      1.92232976	     -0.18963565	   -234.68717188	     -0.45219723	      0.93664028	      0.77634728	     -3.31833302	     16.17789008	     18.14792102	    -13.97088299	     11.56092387	    -12.95466360	     32.30648167	     -6.00746208	     15.41400473	    -35.01186208	     10.61477090	     15.92582320	     -6.37965123	      0.31769866	     13.05411453
      1.94000000	      2.03001533	     -0.21025757	   -235.61623777	     -0.45706369	      0.93518842	      0.76980068	     -3.69401669	     16.20063079	     18.87608044	    -14.46846602	     12.02309704	    -12.98004520	     32.03010072	     -5.93116846	     16.73211129	    -31.58643253	     10.80565139	     16.25734244	     -6.32271625	      0.43448700	     13.30195950
      1.95000000	      2.16205407	     -0.23512198	   -236.53635652	     -0.46182793	      0.93356910	      0.76311500	     -4.00961684	     16.26535340	     19.55634892	    -15.05357670	     12.47751851	    -13.04657658	     31.74728844	     -5.98204815	     17.97705649	    -28.26862970	     10.97200763	     16.46579793	     -6.24456916	      0.55744743	     13.56551403
      1.96000000	      2.30912295	     -0.26412682	   -237.45675690	     -0.46648795	      0.93181591	      0.75627906	     -4.28183553	     16.36221079	     20.20335856	    -15.71396947	     12.92044251	    -13.14927917	     31.48209192	     -6.14793415	     19.06037934	    -25.13426332	     11.10842455	     16.54357073	     -6.15148165	      0.67842360	     13.84801339
      1.97000000	      2.46333612	     -0.30542535	   -238.38407083	     -0.47105093	      0.92995984	      0.74929739	     -4.51741802	     16.47558395	     20.82678056	    -16.43585616	     13.35107490	    -13.27624406	     31.26463143	     -6.40033905	     19.89187652	    -22.25664776	     11.21624582	     16.49731996	     -6.04011110	      0.78821411	     14.14682529
      1.98000000	      2.61865237	     -0.35797008	   -239.30477448	     -0.47554241	      0.92804678	      0.74219603	     -4.72922208	     16.59604275	     21.42416347	    -17.19764733	     13.76062742	    -13.42205227	     31.11110999	     -6.69758885	     20.43561663	    -19.69407726	     11.30689325	     16.34036065	     -5.91810279	      0.88473851	     14.43797741
      1.99000000	      2.77509972	     -0.45780621	   -240.23519685	     -0.47994473	      0.92607728	      0.73497144	     -4.87510042	     16.70395437	     22.00064557	    -18.01707229	     14.13647248	    -13.50921227	     31.06862819	     -7.00420737	     20.60267566	    -17.50265551	     11.42259488	     16.26822440	     -5.74676799	      0.94872262	     14.72955451
      2.00000000	      2.90527372	     -0.55837308	   -241.15607480	     -0.48433684	      0.92418768	      0.72761804	     -5.03525547	     16.78613373	     22.54192237	    -18.84496706	     14.45490837	    -13.58140249	     31.06989589	     -7.27989332	     20.43652611	    -15.69778649	     11.56445860	     16.15626276	     -5.58516138	      0.98533983	     15.00572167
      2.01000000	      3.01511529	     -0.67484969	   -242.05883581	     -0.48874341	      0.92240080	      0.72012488	     -5.19225458	     16.83597602	     23.03751800	    -19.67385239	     14.71130323	    -13.62336399	     31.12557481	     -7.49958158	     19.97771700	    -14.28771551	     11.70051861	     16.05530476	     -5.41044441	      0.99409752	     15.25879416
      2.02000000	      3.09070440	     -0.79288494	   -242.93590415	     -0.49317543	      0.92077452	      0.71248007	     -5.35516615	     16.85284716	     23.49931229	    -20.52300854	     14.86454423	    -13.63045423	     31.21580519	     -7.64044783	     19.29092696	    -13.29210375	     11.84056670	     15.94026905	     -5.24458478	      0.96749972	     15.45685845
      2.03000000	      3.14244364	     -0.90908159	   -243.76898991	     -0.49767578	      0.91933977	      0.70466426	     -5.53107385	     16.84122665	     23.90912269	    -21.36541026	     14.91584964	    -13.59979638	     31.33218183	     -7.70037823	     18.48673735	    -12.69281494	     11.93475396	     15.80984567	     -5.07994910	      0.91863052	     15.59623012
      2.04000000	      3.17753678	     -1.01966642	   -244.54755506	     -0.50226357	      0.91811699	      0.69665117	     -5.72009477	     16.80827683	     24.25067235	    -22.19534610	     14.85302411	    -13.53228091	     31.46228372	     -7.68538688	     17.66228610	    -12.46136851	     11.95456735	     15.64139430	     -4.91312671	      0.85591212	     15.67467879
      2.05000000	      3.20380391	     -1.12422417	   -245.26657078	     -0.50693784	      0.91711274	      0.68840928	     -5.92013588	     16.76228538	     24.51460243	    -23.00753582	     14.66717558	    -13.42722705	     31.59415227	     -7.60689502	     16.90137314	    -12.55744318	     11.87532813	     15.40212226	     -4.73679887	      0.78399663	     15.68733463
      2.06000000	      3.24273459	     -1.21881022	   -245.90786860	     -0.51173482	      0.91631871	      0.67995447	     -6.12009399	     16.72242341	     24.66601029	    -23.79893011	     14.36239310	    -13.16806991	     31.72836199	     -7.47780732	     16.28913692	    -12.93807274	     11.59994283	     14.85826750	     -4.54677637	      0.73172333	     15.61961380
